<?xml version="1.0" encoding="UTF-8" standalone="no"?>
<!DOCTYPE svg PUBLIC "-//W3C//DTD SVG 1.1//EN" "http://www.w3.org/Graphics/SVG/1.1/DTD/svg11.dtd">
<svg width="436" height="100" viewBox="0 0 436 100" version="1.1" xmlns="http://www.w3.org/2000/svg" xmlns:xlink="http://www.w3.org/1999/xlink" xml:space="preserve" xmlns:serif="http://www.serif.com/" style="fill-rule:evenodd;clip-rule:evenodd;stroke-linejoin:round;stroke-miterlimit:2;">
    <g transform="matrix(1,0,0,1,-54.023677,-47.398083)">
        <g>
            <g transform="matrix(4.864085,0,0,4.864085,-861.565904,-25.148056)">
                <path d="M222.681,31.317C222.041,31.317 221.557,31.135 221.229,30.771C220.901,30.407 220.737,29.885 220.737,29.205L220.737,28.725L221.985,28.725L221.985,29.301C221.985,29.845 222.213,30.117 222.669,30.117C222.893,30.117 223.063,30.051 223.179,29.919C223.295,29.787 223.353,29.573 223.353,29.277C223.353,28.925 223.273,28.615 223.113,28.347C222.953,28.079 222.657,27.757 222.225,27.381C221.681,26.901 221.301,26.467 221.085,26.079C220.869,25.691 220.761,25.253 220.761,24.765C220.761,24.101 220.929,23.587 221.265,23.223C221.601,22.859 222.089,22.677 222.729,22.677C223.361,22.677 223.839,22.859 224.163,23.223C224.487,23.587 224.649,24.109 224.649,24.789L224.649,25.137L223.401,25.137L223.401,24.705C223.401,24.417 223.345,24.207 223.233,24.075C223.121,23.943 222.957,23.877 222.741,23.877C222.301,23.877 222.081,24.145 222.081,24.681C222.081,24.985 222.163,25.269 222.327,25.533C222.491,25.797 222.789,26.117 223.221,26.493C223.773,26.973 224.153,27.409 224.361,27.801C224.569,28.193 224.673,28.653 224.673,29.181C224.673,29.869 224.503,30.397 224.163,30.765C223.823,31.133 223.329,31.317 222.681,31.317Z" style="fill:url(#_Linear1);fill-rule:nonzero;"/>
            </g>
            <g transform="matrix(4.864085,0,0,4.864085,-861.565904,-25.148056)">
                <path d="M225.429,22.797L229.029,22.797L229.029,23.997L226.749,23.997L226.749,26.217L228.561,26.217L228.561,27.417L226.749,27.417L226.749,29.997L229.029,29.997L229.029,31.197L225.429,31.197L225.429,22.797Z" style="fill:url(#_Linear2);fill-rule:nonzero;"/>
            </g>
            <g transform="matrix(4.864085,0,0,4.864085,-861.565904,-25.148056)">
                <path d="M231.657,31.317C231.017,31.317 230.529,31.135 230.193,30.771C229.857,30.407 229.689,29.885 229.689,29.205L229.689,24.789C229.689,24.109 229.857,23.587 230.193,23.223C230.529,22.859 231.017,22.677 231.657,22.677C232.297,22.677 232.785,22.859 233.121,23.223C233.457,23.587 233.625,24.109 233.625,24.789L233.625,25.509L232.377,25.509L232.377,24.705C232.377,24.153 232.149,23.877 231.693,23.877C231.237,23.877 231.009,24.153 231.009,24.705L231.009,29.301C231.009,29.845 231.237,30.117 231.693,30.117C232.149,30.117 232.377,29.845 232.377,29.301L232.377,27.657L231.717,27.657L231.717,26.457L233.625,26.457L233.625,29.205C233.625,29.885 233.457,30.407 233.121,30.771C232.785,31.135 232.297,31.317 231.657,31.317Z" style="fill:url(#_Linear3);fill-rule:nonzero;"/>
            </g>
            <g transform="matrix(4.864085,0,0,4.864085,-861.565904,-25.148056)">
                <path d="M236.397,31.317C235.757,31.317 235.269,31.135 234.933,30.771C234.597,30.407 234.429,29.885 234.429,29.205L234.429,22.797L235.749,22.797L235.749,29.301C235.749,29.589 235.807,29.797 235.923,29.925C236.039,30.053 236.205,30.117 236.421,30.117C236.637,30.117 236.803,30.053 236.919,29.925C237.035,29.797 237.093,29.589 237.093,29.301L237.093,22.797L238.365,22.797L238.365,29.205C238.365,29.885 238.197,30.407 237.861,30.771C237.525,31.135 237.037,31.317 236.397,31.317Z" style="fill:url(#_Linear4);fill-rule:nonzero;"/>
            </g>
            <g transform="matrix(4.864085,0,0,4.864085,-861.565904,-25.148056)">
                <rect x="239.301" y="22.797" width="1.32" height="8.4" style="fill:url(#_Linear5);fill-rule:nonzero;"/>
            </g>
            <g transform="matrix(4.864085,0,0,4.864085,-861.565904,-25.148056)">
                <path d="M241.605,22.797L243.489,22.797L244.329,28.809L244.353,28.809L245.193,22.797L247.077,22.797L247.077,31.197L245.829,31.197L245.829,24.837L245.805,24.837L244.845,31.197L243.741,31.197L242.781,24.837L242.757,24.837L242.757,31.197L241.605,31.197L241.605,22.797Z" style="fill:url(#_Linear6);fill-rule:nonzero;"/>
            </g>
            <g transform="matrix(4.864085,0,0,4.864085,-861.565904,-25.148056)">
                <rect x="248.061" y="22.797" width="1.32" height="8.4" style="fill:url(#_Linear7);fill-rule:nonzero;"/>
            </g>
            <g transform="matrix(4.864085,0,0,4.864085,-861.565904,-25.148056)">
                <path d="M250.365,22.797L253.965,22.797L253.965,23.997L251.685,23.997L251.685,26.217L253.497,26.217L253.497,27.417L251.685,27.417L251.685,29.997L253.965,29.997L253.965,31.197L250.365,31.197L250.365,22.797Z" style="fill:url(#_Linear8);fill-rule:nonzero;"/>
            </g>
            <g transform="matrix(4.864085,0,0,4.864085,-861.565904,-25.148056)">
                <path d="M254.721,22.797L256.377,22.797L257.661,27.825L257.685,27.825L257.685,22.797L258.861,22.797L258.861,31.197L257.505,31.197L255.921,25.065L255.897,25.065L255.897,31.197L254.721,31.197L254.721,22.797Z" style="fill:url(#_Linear9);fill-rule:nonzero;"/>
            </g>
            <g transform="matrix(4.864085,0,0,4.864085,-861.565904,-25.148056)">
                <path d="M260.877,23.997L259.497,23.997L259.497,22.797L263.577,22.797L263.577,23.997L262.197,23.997L262.197,31.197L260.877,31.197L260.877,23.997Z" style="fill:url(#_Linear10);fill-rule:nonzero;"/>
            </g>
            <g transform="matrix(4.864085,0,0,4.864085,-861.565904,-25.148056)">
                <path d="M266.073,31.317C265.425,31.317 264.929,31.133 264.585,30.765C264.241,30.397 264.069,29.877 264.069,29.205L264.069,24.789C264.069,24.117 264.241,23.597 264.585,23.229C264.929,22.861 265.425,22.677 266.073,22.677C266.721,22.677 267.217,22.861 267.561,23.229C267.905,23.597 268.077,24.117 268.077,24.789L268.077,29.205C268.077,29.877 267.905,30.397 267.561,30.765C267.217,31.133 266.721,31.317 266.073,31.317ZM266.073,30.117C266.529,30.117 266.757,29.841 266.757,29.289L266.757,24.705C266.757,24.153 266.529,23.877 266.073,23.877C265.617,23.877 265.389,24.153 265.389,24.705L265.389,29.289C265.389,29.841 265.617,30.117 266.073,30.117Z" style="fill:url(#_Linear11);fill-rule:nonzero;"/>
            </g>
        </g>
        <g>
            <g transform="matrix(4.864085,0,0,4.864085,-870.546359,-25.148056)">
                <path d="M270.885,22.797L272.829,22.797C273.485,22.797 273.977,22.973 274.305,23.325C274.633,23.677 274.797,24.193 274.797,24.873L274.797,25.701C274.797,26.381 274.633,26.897 274.305,27.249C273.977,27.601 273.485,27.777 272.829,27.777L272.205,27.777L272.205,31.197L270.885,31.197L270.885,22.797ZM272.829,26.577C273.045,26.577 273.207,26.517 273.315,26.397C273.423,26.277 273.477,26.073 273.477,25.785L273.477,24.789C273.477,24.501 273.423,24.297 273.315,24.177C273.207,24.057 273.045,23.997 272.829,23.997L272.205,23.997L272.205,26.577L272.829,26.577Z" style="fill:url(#_Linear12);fill-rule:nonzero;"/>
            </g>
            <g transform="matrix(4.864085,0,0,4.864085,-870.546359,-25.148056)">
                <path d="M275.517,22.797L277.173,22.797L278.457,27.825L278.481,27.825L278.481,22.797L279.657,22.797L279.657,31.197L278.301,31.197L276.717,25.065L276.693,25.065L276.693,31.197L275.517,31.197L275.517,22.797Z" style="fill:url(#_Linear13);fill-rule:nonzero;"/>
            </g>
        </g>
        <g transform="matrix(1.003557,0,0,1,-0.513351,0)">
            <path d="M137.772,147.027L54.344,147.027L54.344,147.017L60.89,135.639L144.324,135.639L137.772,147.027ZM198.772,79.43L166.435,135.639L156.617,135.639L156.59,135.623L188.918,79.43L198.772,79.43ZM70.735,111.198L144.966,111.198L177.587,61.575L190.657,61.634L155.158,116.918C155.158,116.918 153.075,119.258 151.328,120.601C148.676,122.639 144.324,122.586 144.324,122.586L64.203,122.586L64.203,122.552L70.735,111.198ZM111.235,95.935L67.569,95.935L109.18,54.175C109.18,54.175 113.905,49.715 116.408,48.679C119.139,47.55 125.564,47.398 125.564,47.398L163.977,47.398L155.714,58.787L120.634,58.787L94.966,84.546L119.498,84.546L111.235,95.935Z" style="fill:url(#_Linear14);"/>
        </g>
    </g>
    <defs>
        <linearGradient id="_Linear1" x1="0" y1="0" x2="1" y2="0" gradientUnits="userSpaceOnUse" gradientTransform="matrix(0,8.64,-8.64,0,234.428716,22.677321)"><stop offset="0" style="stop-color:rgb(139,140,140);stop-opacity:1"/><stop offset="0.5" style="stop-color:rgb(171,173,175);stop-opacity:1"/><stop offset="1" style="stop-color:rgb(139,140,140);stop-opacity:1"/></linearGradient>
        <linearGradient id="_Linear2" x1="0" y1="0" x2="1" y2="0" gradientUnits="userSpaceOnUse" gradientTransform="matrix(0,8.64,-8.64,0,234.428716,22.677321)"><stop offset="0" style="stop-color:rgb(139,140,140);stop-opacity:1"/><stop offset="0.5" style="stop-color:rgb(171,173,175);stop-opacity:1"/><stop offset="1" style="stop-color:rgb(139,140,140);stop-opacity:1"/></linearGradient>
        <linearGradient id="_Linear3" x1="0" y1="0" x2="1" y2="0" gradientUnits="userSpaceOnUse" gradientTransform="matrix(0,8.64,-8.64,0,234.428716,22.677321)"><stop offset="0" style="stop-color:rgb(139,140,140);stop-opacity:1"/><stop offset="0.5" style="stop-color:rgb(171,173,175);stop-opacity:1"/><stop offset="1" style="stop-color:rgb(139,140,140);stop-opacity:1"/></linearGradient>
        <linearGradient id="_Linear4" x1="0" y1="0" x2="1" y2="0" gradientUnits="userSpaceOnUse" gradientTransform="matrix(0,8.64,-8.64,0,234.428716,22.677321)"><stop offset="0" style="stop-color:rgb(139,140,140);stop-opacity:1"/><stop offset="0.5" style="stop-color:rgb(171,173,175);stop-opacity:1"/><stop offset="1" style="stop-color:rgb(139,140,140);stop-opacity:1"/></linearGradient>
        <linearGradient id="_Linear5" x1="0" y1="0" x2="1" y2="0" gradientUnits="userSpaceOnUse" gradientTransform="matrix(0,8.64,-8.64,0,234.428716,22.677321)"><stop offset="0" style="stop-color:rgb(139,140,140);stop-opacity:1"/><stop offset="0.5" style="stop-color:rgb(171,173,175);stop-opacity:1"/><stop offset="1" style="stop-color:rgb(139,140,140);stop-opacity:1"/></linearGradient>
        <linearGradient id="_Linear6" x1="0" y1="0" x2="1" y2="0" gradientUnits="userSpaceOnUse" gradientTransform="matrix(0,8.64,-8.64,0,234.428716,22.677321)"><stop offset="0" style="stop-color:rgb(139,140,140);stop-opacity:1"/><stop offset="0.5" style="stop-color:rgb(171,173,175);stop-opacity:1"/><stop offset="1" style="stop-color:rgb(139,140,140);stop-opacity:1"/></linearGradient>
        <linearGradient id="_Linear7" x1="0" y1="0" x2="1" y2="0" gradientUnits="userSpaceOnUse" gradientTransform="matrix(0,8.64,-8.64,0,234.428716,22.677321)"><stop offset="0" style="stop-color:rgb(139,140,140);stop-opacity:1"/><stop offset="0.5" style="stop-color:rgb(171,173,175);stop-opacity:1"/><stop offset="1" style="stop-color:rgb(139,140,140);stop-opacity:1"/></linearGradient>
        <linearGradient id="_Linear8" x1="0" y1="0" x2="1" y2="0" gradientUnits="userSpaceOnUse" gradientTransform="matrix(0,8.64,-8.64,0,234.428716,22.677321)"><stop offset="0" style="stop-color:rgb(139,140,140);stop-opacity:1"/><stop offset="0.5" style="stop-color:rgb(171,173,175);stop-opacity:1"/><stop offset="1" style="stop-color:rgb(139,140,140);stop-opacity:1"/></linearGradient>
        <linearGradient id="_Linear9" x1="0" y1="0" x2="1" y2="0" gradientUnits="userSpaceOnUse" gradientTransform="matrix(0,8.64,-8.64,0,234.428716,22.677321)"><stop offset="0" style="stop-color:rgb(139,140,140);stop-opacity:1"/><stop offset="0.5" style="stop-color:rgb(171,173,175);stop-opacity:1"/><stop offset="1" style="stop-color:rgb(139,140,140);stop-opacity:1"/></linearGradient>
        <linearGradient id="_Linear10" x1="0" y1="0" x2="1" y2="0" gradientUnits="userSpaceOnUse" gradientTransform="matrix(0,8.64,-8.64,0,234.428716,22.677321)"><stop offset="0" style="stop-color:rgb(139,140,140);stop-opacity:1"/><stop offset="0.5" style="stop-color:rgb(171,173,175);stop-opacity:1"/><stop offset="1" style="stop-color:rgb(139,140,140);stop-opacity:1"/></linearGradient>
        <linearGradient id="_Linear11" x1="0" y1="0" x2="1" y2="0" gradientUnits="userSpaceOnUse" gradientTransform="matrix(0,8.64,-8.64,0,234.428716,22.677321)"><stop offset="0" style="stop-color:rgb(139,140,140);stop-opacity:1"/><stop offset="0.5" style="stop-color:rgb(171,173,175);stop-opacity:1"/><stop offset="1" style="stop-color:rgb(139,140,140);stop-opacity:1"/></linearGradient>
        <linearGradient id="_Linear12" x1="0" y1="0" x2="1" y2="0" gradientUnits="userSpaceOnUse" gradientTransform="matrix(0,8.52,-8.52,0,272.204716,22.677321)"><stop offset="0" style="stop-color:rgb(10,21,33);stop-opacity:1"/><stop offset="0.5" style="stop-color:rgb(0,122,255);stop-opacity:1"/><stop offset="1" style="stop-color:rgb(10,21,33);stop-opacity:1"/></linearGradient>
        <linearGradient id="_Linear13" x1="0" y1="0" x2="1" y2="0" gradientUnits="userSpaceOnUse" gradientTransform="matrix(0,8.52,-8.52,0,272.204716,22.677321)"><stop offset="0" style="stop-color:rgb(10,21,33);stop-opacity:1"/><stop offset="0.5" style="stop-color:rgb(0,122,255);stop-opacity:1"/><stop offset="1" style="stop-color:rgb(10,21,33);stop-opacity:1"/></linearGradient>
        <linearGradient id="_Linear14" x1="0" y1="0" x2="1" y2="0" gradientUnits="userSpaceOnUse" gradientTransform="matrix(0,99.629145,-68.239506,0,137.772274,47.398083)"><stop offset="0" style="stop-color:rgb(10,21,33);stop-opacity:1"/><stop offset="0.5" style="stop-color:rgb(0,122,255);stop-opacity:1"/><stop offset="1" style="stop-color:rgb(10,21,33);stop-opacity:1"/></linearGradient>
    </defs>
</svg>
